<svg width="60" height="60" viewBox="0 0 60 60" fill="none" xmlns="http://www.w3.org/2000/svg">
<rect width="60" height="60" fill="#FE3E57"/>
<path d="M24.5643 37.2483C24.0664 36.7391 24.3259 36.8827 23.1251 36.554C22.5803 36.4046 22.1013 36.1175 21.6682 35.7735L19.0689 42.2915C18.8174 42.9225 19.2871 43.6081 19.9529 43.5823L22.9716 43.4645L25.0478 45.7075C25.5062 46.202 26.3105 46.0479 26.562 45.4169L29.5441 37.9391C28.923 38.2931 28.2338 38.5005 27.5211 38.5005C26.4039 38.5005 25.3543 38.0557 24.5643 37.2483V37.2483ZM40.9314 42.2915L38.332 35.7735C37.8989 36.118 37.42 36.4046 36.8751 36.554C35.668 36.8845 35.9327 36.7403 35.4359 37.2483C34.6459 38.0557 33.5957 38.5005 32.4786 38.5005C31.7658 38.5005 31.0766 38.2925 30.4556 37.9391L33.4376 45.4169C33.6891 46.0479 34.4941 46.202 34.9518 45.7075L37.0287 43.4645L40.0474 43.5823C40.7131 43.6081 41.1829 42.922 40.9314 42.2915V42.2915ZM34.0678 35.9223C34.9432 35.0112 35.0435 35.0897 36.2902 34.7423C37.086 34.5202 37.7081 33.8727 37.9213 33.0442C38.3498 31.3802 38.2387 31.5811 39.408 30.3636C39.9906 29.7571 40.2181 28.8729 40.005 28.0444C39.577 26.3815 39.5764 26.6136 40.005 24.9489C40.2181 24.1204 39.9906 23.2362 39.408 22.6298C38.2387 21.4122 38.3498 21.6126 37.9213 19.9491C37.7081 19.1206 37.086 18.4731 36.2902 18.2511C34.6929 17.8052 34.8854 17.9218 33.7149 16.7036C33.1323 16.0972 32.2826 15.8598 31.4868 16.0819C29.8901 16.5272 30.113 16.5278 28.5134 16.0819C27.7176 15.8598 26.868 16.0966 26.2853 16.7036C25.116 17.9212 25.3085 17.8052 23.7106 18.2511C22.9149 18.4731 22.2927 19.1206 22.0795 19.9491C21.6516 21.6126 21.7621 21.4122 20.5928 22.6298C20.0102 23.2362 19.7821 24.1204 19.9958 24.9489C20.4238 26.6106 20.4244 26.3786 19.9958 28.0438C19.7827 28.8723 20.0102 29.7565 20.5928 30.3636C21.7621 31.5811 21.651 31.3802 22.0795 33.0442C22.2927 33.8727 22.9149 34.5202 23.7106 34.7423C24.9928 35.0997 25.0885 35.0434 25.9324 35.9223C26.6904 36.7116 27.8712 36.8528 28.7821 36.2634C29.1464 36.0269 29.5689 35.9013 30.0004 35.9013C30.4319 35.9013 30.8544 36.0269 31.2187 36.2634C32.1291 36.8528 33.3099 36.7116 34.0678 35.9223ZM24.5952 26.3106C24.5952 23.2034 27.0152 20.6845 30.0001 20.6845C32.985 20.6845 35.405 23.2034 35.405 26.3106C35.405 29.4179 32.985 31.9368 30.0001 31.9368C27.0152 31.9368 24.5952 29.4179 24.5952 26.3106V26.3106Z" fill="white"/>
</svg>
