<?xml version="1.0" encoding="UTF-8"?>
<svg xmlns="http://www.w3.org/2000/svg" xmlns:xlink="http://www.w3.org/1999/xlink" width="15pt" height="15pt" viewBox="0 0 15 15" version="1.1">
<g id="surface1">
<path style=" stroke:none;fill-rule:nonzero;fill:rgb(55.294118%,55.294118%,55.294118%);fill-opacity:1;" d="M 7.335938 0.230469 C 3.410156 0.230469 0.230469 3.410156 0.230469 7.335938 C 0.230469 11.265625 3.410156 14.445312 7.335938 14.445312 C 11.265625 14.445312 14.445312 11.265625 14.445312 7.335938 C 14.445312 3.410156 11.265625 0.230469 7.335938 0.230469 Z M 7.335938 1.605469 C 10.503906 1.605469 13.070312 4.171875 13.070312 7.335938 C 13.070312 10.503906 10.503906 13.070312 7.335938 13.070312 C 4.171875 13.070312 1.605469 10.503906 1.605469 7.335938 C 1.605469 4.171875 4.171875 1.605469 7.335938 1.605469 M 11.355469 5.339844 L 10.707031 4.6875 C 10.574219 4.550781 10.359375 4.550781 10.222656 4.6875 L 6.171875 8.703125 L 4.457031 6.976562 C 4.324219 6.839844 4.109375 6.839844 3.96875 6.976562 L 3.320312 7.621094 C 3.1875 7.753906 3.1875 7.972656 3.316406 8.109375 L 5.921875 10.730469 C 6.054688 10.867188 6.269531 10.867188 6.410156 10.730469 L 11.351562 5.824219 C 11.488281 5.691406 11.488281 5.476562 11.355469 5.339844 Z M 11.355469 5.339844 "/>
</g>
</svg>
