<?xml version="1.0" encoding="UTF-8"?>
<svg xmlns="http://www.w3.org/2000/svg" xmlns:xlink="http://www.w3.org/1999/xlink" width="33pt" height="30pt" viewBox="0 0 33 30" version="1.1">
<g id="surface1">
<path style=" stroke:none;fill-rule:nonzero;fill:rgb(0%,0%,0%);fill-opacity:1;" d="M 32.800781 14.144531 C 29.695312 7.945312 23.542969 3.75 16.5 3.75 C 9.457031 3.75 3.304688 7.949219 0.199219 14.144531 C -0.0664062 14.683594 -0.0664062 15.316406 0.199219 15.855469 C 3.304688 22.054688 9.457031 26.25 16.5 26.25 C 23.542969 26.25 29.695312 22.050781 32.800781 15.855469 C 33.066406 15.316406 33.066406 14.683594 32.800781 14.144531 Z M 16.5 23.4375 C 11.945312 23.4375 8.25 19.660156 8.25 15 C 8.25 10.339844 11.945312 6.5625 16.5 6.5625 C 21.054688 6.5625 24.75 10.339844 24.75 15 C 24.753906 19.660156 21.058594 23.441406 16.5 23.4375 Z M 16.5 9.375 C 16.007812 9.382812 15.519531 9.457031 15.050781 9.597656 C 15.851562 10.714844 15.738281 12.261719 14.78125 13.242188 C 13.824219 14.222656 12.308594 14.339844 11.21875 13.515625 C 10.601562 15.839844 11.5 18.304688 13.457031 19.648438 C 15.410156 20.988281 17.984375 20.90625 19.851562 19.441406 C 21.71875 17.976562 22.464844 15.457031 21.707031 13.179688 C 20.949219 10.898438 18.855469 9.371094 16.5 9.375 Z M 16.5 9.375 "/>
</g>
</svg>
