<?xml version="1.0" encoding="UTF-8"?>
<svg xmlns="http://www.w3.org/2000/svg" xmlns:xlink="http://www.w3.org/1999/xlink" width="37pt" height="30pt" viewBox="0 0 37 30" version="1.1">
<g id="surface1">
<path style=" stroke:none;fill-rule:nonzero;fill:rgb(0%,0%,0%);fill-opacity:1;" d="M 18.5 23.4375 C 14.113281 23.4375 10.566406 19.996094 10.238281 15.636719 L 4.175781 10.886719 C 3.375 11.902344 2.644531 12.972656 2.050781 14.144531 C 1.78125 14.683594 1.78125 15.316406 2.050781 15.855469 C 5.1875 22.054688 11.394531 26.25 18.5 26.25 C 20.054688 26.25 21.554688 26.015625 23.003906 25.636719 L 20.003906 23.285156 C 19.507812 23.382812 19.003906 23.433594 18.5 23.4375 Z M 36.644531 26.84375 L 30.25 21.835938 C 32.191406 20.175781 33.789062 18.144531 34.949219 15.855469 C 35.21875 15.316406 35.21875 14.683594 34.949219 14.144531 C 31.8125 7.945312 25.605469 3.75 18.5 3.75 C 15.523438 3.753906 12.59375 4.511719 9.984375 5.957031 L 2.628906 0.199219 C 2.226562 -0.121094 1.644531 -0.046875 1.328125 0.363281 L 0.195312 1.84375 C -0.117188 2.25 -0.046875 2.839844 0.355469 3.15625 L 34.371094 29.800781 C 34.773438 30.121094 35.355469 30.046875 35.671875 29.636719 L 36.804688 28.15625 C 37.117188 27.75 37.046875 27.160156 36.644531 26.839844 Z M 26.019531 18.523438 L 23.75 16.742188 C 23.941406 16.179688 24.042969 15.59375 24.050781 15 C 24.074219 13.238281 23.269531 11.570312 21.886719 10.507812 C 20.503906 9.441406 18.703125 9.105469 17.035156 9.597656 C 17.386719 10.074219 17.574219 10.65625 17.574219 11.25 C 17.566406 11.449219 17.535156 11.644531 17.484375 11.835938 L 13.230469 8.503906 C 14.707031 7.25 16.574219 6.5625 18.5 6.5625 C 20.707031 6.5625 22.828125 7.449219 24.386719 9.03125 C 25.949219 10.613281 26.828125 12.761719 26.824219 15 C 26.824219 16.265625 26.519531 17.449219 26.019531 18.523438 Z M 26.019531 18.523438 "/>
</g>
</svg>
