<svg width="126" height="46" viewBox="0 0 126 46" fill="none" xmlns="http://www.w3.org/2000/svg">
<g filter="url(#filter0_d)">
<path d="M121.763 18.2995C120.561 13.9902 114.827 9.94222 105.511 6.82481C96.1943 3.7074 83.853 1.70732 70.5275 1.15531C57.202 0.603297 43.6906 1.53242 32.2275 3.78904C20.7644 6.04565 12.0363 9.4946 7.48632 13.5655C2.93638 17.6365 2.83719 22.0856 7.20516 26.1772C11.5731 30.2687 20.1466 33.7577 31.5079 36.0671C42.8692 38.3765 56.3378 39.368 69.6865 38.8776C83.0352 38.3873 95.4645 36.4445 104.919 33.3705L97.7658 31.0889C89.9247 33.6384 79.6164 35.2496 68.5455 35.6563C57.4747 36.063 46.3044 35.2407 36.8818 33.3254C27.4592 31.4101 20.3487 28.5165 16.7261 25.1231C13.1035 21.7297 13.1857 18.0398 16.9593 14.6635C20.7328 11.2873 27.9716 8.42686 37.4786 6.55531C46.9856 4.68377 58.1914 3.91319 69.243 4.37101C80.2946 4.82882 90.53 6.4876 98.2566 9.07305C105.983 11.6585 110.738 15.0158 111.736 18.5897L121.763 18.2995Z" fill="white"/>
<path d="M105.447 7.01447C110.094 8.56941 113.837 10.3532 116.564 12.2786C119.187 14.1303 120.852 16.1001 121.497 18.1071L111.884 18.3853C111.331 16.5904 109.87 14.8755 107.635 13.2973C105.335 11.6732 102.195 10.1799 98.3201 8.88339C90.5705 6.29028 80.3154 4.62951 69.2513 4.17118C58.1861 3.7128 46.9644 4.48411 37.44 6.35908C27.9246 8.23227 20.6411 11.1009 16.8259 14.5145C14.9149 16.2244 13.9103 18.0392 13.8692 19.8824C13.8281 21.7268 14.7527 23.5486 16.5894 25.2691C20.2543 28.7021 27.4114 31.6044 36.842 33.5214C46.2822 35.4402 57.4685 36.2633 68.5529 35.8562C79.6076 35.4501 89.9104 33.8442 97.7664 31.299L104.262 33.3709C94.9064 36.3274 82.7367 38.1981 69.6792 38.6778C56.344 39.1676 42.8914 38.1769 31.5478 35.8711C20.1944 33.5633 11.6675 30.0831 7.34189 26.0312C5.18328 24.0092 4.15562 21.925 4.20147 19.8681C4.24735 17.8101 5.369 15.7283 7.61968 13.7146C12.128 9.68093 20.8114 6.24024 32.2662 3.98527C43.7118 1.73209 57.2073 0.803687 70.5192 1.35514C83.8321 1.90662 96.1537 3.90472 105.447 7.01447Z" stroke="#2967AF" stroke-width="0.4"/>
</g>
<mask id="path-3-outside-1" maskUnits="userSpaceOnUse" x="20.2812" y="13.4248" width="88" height="14" fill="black">
<rect fill="white" x="20.2812" y="13.4248" width="88" height="14"/>
<path d="M26.4141 16.2529V25.332C26.1445 25.5664 25.7842 25.7627 25.333 25.9209C24.8818 26.0791 24.334 26.1582 23.6895 26.1582C23.0449 26.1582 22.4971 26.0146 22.0459 25.7275C21.5361 25.417 21.2812 24.9775 21.2812 24.4092V15.3301C21.5508 15.0957 21.9111 14.8994 22.3623 14.7412C22.8135 14.583 23.3584 14.5039 23.9971 14.5039C24.6357 14.5039 25.1895 14.6445 25.6582 14.9258C26.1621 15.248 26.4141 15.6904 26.4141 16.2529Z"/>
<path d="M31.9248 26.2725C30.4014 26.2725 29.1855 25.8037 28.2773 24.8662C27.375 23.9229 26.9238 22.6602 26.9238 21.0781C26.9238 19.4961 27.4365 18.2451 28.4619 17.3252C29.376 16.5049 30.5186 16.0947 31.8896 16.0947C33.1084 16.0947 34.1191 16.3965 34.9219 17C35.7246 17.5977 36.126 18.4121 36.126 19.4434C36.126 20.1582 35.9033 20.7412 35.458 21.1924C35.0186 21.6377 34.4385 21.8604 33.7178 21.8604C33.1318 21.8604 32.6426 21.7051 32.25 21.3945C31.8633 21.0781 31.6348 20.668 31.5645 20.1641C31.3066 20.1641 31.1777 20.2578 31.1777 20.4453C31.1777 20.873 31.3887 21.2656 31.8105 21.623C32.2969 22.0449 32.9004 22.2559 33.6211 22.2559C34.3477 22.2559 34.9482 22.1006 35.4229 21.79C35.7158 22.2412 35.8623 22.7891 35.8623 23.4336C35.8623 24.1836 35.54 24.8252 34.8955 25.3584C34.1572 25.9678 33.167 26.2725 31.9248 26.2725Z"/>
<path d="M41.6455 26.2725C40.0225 26.2725 38.7422 25.8213 37.8047 24.9189C36.8438 24.0107 36.3633 22.7686 36.3633 21.1924C36.3633 19.6104 36.8584 18.3564 37.8486 17.4307C38.7627 16.5693 39.9199 16.1387 41.3203 16.1387C42.7207 16.1387 43.8428 16.5254 44.6865 17.2988C45.5361 18.0664 45.9609 19.0127 45.9609 20.1377C45.9609 21.1396 45.6123 21.8955 44.915 22.4053C44.2705 22.8857 43.3916 23.126 42.2783 23.126C41.4463 23.126 40.7432 22.9531 40.1689 22.6074C40.1221 22.6426 40.0986 22.707 40.0986 22.8008C40.0986 22.9766 40.3301 23.1377 40.793 23.2842C41.2559 23.4424 41.7803 23.5215 42.3662 23.5215C42.958 23.5215 43.4941 23.4482 43.9746 23.3018C44.4609 23.1494 44.8506 22.9707 45.1436 22.7656C45.2842 22.8887 45.3955 23.1172 45.4775 23.4512C45.5654 23.7793 45.6094 24.0811 45.6094 24.3564C45.6094 24.626 45.583 24.8662 45.5303 25.0771C45.0732 25.4639 44.6045 25.7393 44.124 25.9033C43.4443 26.1494 42.6182 26.2725 41.6455 26.2725ZM41.5312 20.3223C41.8242 20.3223 41.9707 20.2109 41.9707 19.9883C41.9707 19.7773 41.8154 19.6719 41.5049 19.6719C41.1943 19.6719 41.0156 19.8389 40.9688 20.1729C41.1328 20.2725 41.3203 20.3223 41.5312 20.3223Z"/>
<path d="M52.3857 20.6387C52.3857 21.0547 52.3242 21.4297 52.2012 21.7637C52.084 22.0918 51.8994 22.4316 51.6475 22.7832H46.9541C46.4678 22.1152 46.2246 21.4004 46.2246 20.6387C46.2246 20.2168 46.2861 19.8359 46.4092 19.4961C46.5322 19.1504 46.7139 18.7988 46.9541 18.4414H51.6475C51.9053 18.8164 52.0928 19.1709 52.21 19.5049C52.3271 19.8389 52.3857 20.2168 52.3857 20.6387Z"/>
<path d="M58.0811 19.9355C58.0811 19.3496 58.0547 18.9482 58.002 18.7314C57.9492 18.5088 57.8525 18.3975 57.7119 18.3975C57.624 18.3975 57.5449 18.4268 57.4746 18.4854C57.4863 18.5908 57.5039 18.7314 57.5273 18.9072C57.5508 19.083 57.5625 19.458 57.5625 20.0322V20.6035C57.5625 21.002 57.5537 21.292 57.5361 21.4736C57.5186 21.6553 57.5039 21.8105 57.4922 21.9395C57.4863 22.0098 57.4805 22.0801 57.4746 22.1504C57.5449 22.209 57.624 22.2383 57.7119 22.2383C57.8525 22.2383 57.9492 22.1299 58.002 21.9131C58.0547 21.6904 58.0811 21.2861 58.0811 20.7002V19.9355ZM54.8027 26.0088C54.1523 26.0088 53.6484 25.8359 53.291 25.4902C52.9395 25.1445 52.7637 24.623 52.7637 23.9258V16.0156C52.7637 15.5703 53.209 15.1953 54.0996 14.8906C54.9961 14.5801 55.9951 14.4248 57.0967 14.4248C59.0361 14.4248 60.5508 14.8936 61.6406 15.8311C62.8125 16.8389 63.3984 18.3418 63.3984 20.3398C63.3984 22.1387 62.8301 23.5332 61.6934 24.5234C60.5625 25.5137 59.0068 26.0088 57.0264 26.0088H54.8027Z"/>
<path d="M66.5361 26.1143C65.8389 26.1143 65.2822 25.9883 64.8662 25.7363C64.4033 25.4727 64.1719 25.083 64.1719 24.5674V20.041C63.8262 19.5547 63.6533 18.957 63.6533 18.248C63.6533 17.5332 63.8262 16.915 64.1719 16.3936H65.5166C66.208 16.3936 66.7031 16.6162 67.002 17.0615C66.8555 17.2256 66.7266 17.4336 66.6152 17.6855C66.5039 17.9375 66.4482 18.1191 66.4482 18.2305C66.4482 18.3359 66.4746 18.415 66.5273 18.4678C66.5859 18.5205 66.668 18.5469 66.7734 18.5469C66.9785 17.7324 67.3682 17.1348 67.9424 16.7539C68.417 16.4316 69.0029 16.2705 69.7002 16.2705C70.5674 16.2705 71.2471 16.4551 71.7393 16.8242C71.915 17.293 72.0029 17.8672 72.0029 18.5469C72.0029 19.2207 71.8682 19.833 71.5986 20.3838C71.3994 20.4893 71.124 20.5801 70.7725 20.6562C70.4209 20.7266 70.0664 20.7617 69.709 20.7617C69.3516 20.7617 69.0293 20.7383 68.7422 20.6914C68.4609 20.6387 68.2559 20.5918 68.127 20.5508C68.0801 20.5977 68.0566 20.665 68.0566 20.7529C68.0566 20.8408 68.1123 20.9082 68.2236 20.9551C68.3408 20.9961 68.5342 21.043 68.8037 21.0957V25.5078C68.165 25.9121 67.4092 26.1143 66.5361 26.1143Z"/>
<path d="M77.4346 26.2725C75.8115 26.2725 74.5312 25.8213 73.5938 24.9189C72.6328 24.0107 72.1523 22.7686 72.1523 21.1924C72.1523 19.6104 72.6475 18.3564 73.6377 17.4307C74.5518 16.5693 75.709 16.1387 77.1094 16.1387C78.5098 16.1387 79.6318 16.5254 80.4756 17.2988C81.3252 18.0664 81.75 19.0127 81.75 20.1377C81.75 21.1396 81.4014 21.8955 80.7041 22.4053C80.0596 22.8857 79.1807 23.126 78.0674 23.126C77.2354 23.126 76.5322 22.9531 75.958 22.6074C75.9111 22.6426 75.8877 22.707 75.8877 22.8008C75.8877 22.9766 76.1191 23.1377 76.582 23.2842C77.0449 23.4424 77.5693 23.5215 78.1553 23.5215C78.7471 23.5215 79.2832 23.4482 79.7637 23.3018C80.25 23.1494 80.6396 22.9707 80.9326 22.7656C81.0732 22.8887 81.1846 23.1172 81.2666 23.4512C81.3545 23.7793 81.3984 24.0811 81.3984 24.3564C81.3984 24.626 81.3721 24.8662 81.3193 25.0771C80.8623 25.4639 80.3936 25.7393 79.9131 25.9033C79.2334 26.1494 78.4072 26.2725 77.4346 26.2725ZM77.3203 20.3223C77.6133 20.3223 77.7598 20.2109 77.7598 19.9883C77.7598 19.7773 77.6045 19.6719 77.2939 19.6719C76.9834 19.6719 76.8047 19.8389 76.7578 20.1729C76.9219 20.2725 77.1094 20.3223 77.3203 20.3223Z"/>
<path d="M91.04 21.6494C91.04 22.0713 91.0869 22.4111 91.1807 22.6689C91.2744 22.9268 91.4385 23.1289 91.6729 23.2754C91.6787 23.3047 91.6816 23.3604 91.6816 23.4424V23.6006C91.6816 24.4326 91.4297 25.0801 90.9258 25.543C90.4805 25.9531 89.9297 26.1582 89.2734 26.1582C88.8281 26.1582 88.4209 26.0527 88.0518 25.8418C87.6826 25.6309 87.4189 25.3262 87.2607 24.9277C87.0615 24.9277 86.9619 25.0244 86.9619 25.2178C86.9619 25.3818 87.0645 25.5664 87.2695 25.7715C86.8887 26.0293 86.3145 26.1582 85.5469 26.1582C84.4629 26.1582 83.5957 25.8652 82.9453 25.2793C82.3008 24.6875 81.9785 23.8643 81.9785 22.8096C81.9785 21.749 82.3213 20.9287 83.0068 20.3486C83.6338 19.8271 84.4453 19.5664 85.4414 19.5664C85.7812 19.5664 86.1094 19.5898 86.4258 19.6367C86.6367 19.6777 86.751 19.7012 86.7686 19.707C86.7861 19.6484 86.7949 19.5986 86.7949 19.5576C86.7949 19.4053 86.666 19.3027 86.4082 19.25C86.1504 19.1973 85.8135 19.1709 85.3975 19.1709C84.5127 19.1709 83.7568 19.3496 83.1299 19.707C82.8428 19.2207 82.6992 18.6055 82.6992 17.8613C82.6992 17.4395 82.752 17.126 82.8574 16.9209C83.2793 16.7275 83.8154 16.5576 84.4658 16.4111C85.1162 16.2588 85.8018 16.1826 86.5225 16.1826C88.0107 16.1826 89.1357 16.5078 89.8975 17.1582C90.6592 17.8086 91.04 18.7314 91.04 19.9268V21.6494ZM86.4785 22.0801C86.2324 22.0801 86.1094 22.1914 86.1094 22.4141C86.1094 22.625 86.2529 22.7305 86.54 22.7305C86.7393 22.7305 86.8857 22.6836 86.9795 22.5898C87.0732 22.4902 87.1201 22.3203 87.1201 22.0801C87.1201 22.0801 86.9062 22.0801 86.4785 22.0801Z"/>
<path d="M106.28 21.6494C106.28 22.0771 106.327 22.4258 106.421 22.6953C106.515 22.9648 106.679 23.1729 106.913 23.3193C106.919 23.3486 106.922 23.3984 106.922 23.4688V23.6006C106.922 24.4033 106.688 25.0303 106.219 25.4814C105.75 25.9326 105.144 26.1582 104.399 26.1582C103.661 26.1582 103.066 25.9561 102.615 25.5518C102.082 25.083 101.815 24.3652 101.815 23.3984V20.6211C101.815 20.2285 101.687 20.0322 101.429 20.0322C101.329 20.0322 101.25 20.0557 101.191 20.1025L101.35 21.4121V23.3984C101.35 24.1953 101.481 24.7988 101.745 25.209C101.464 25.5078 101.112 25.7422 100.69 25.9121C100.274 26.0762 99.8496 26.1582 99.416 26.1582C98.7129 26.1582 98.168 25.9883 97.7812 25.6484C97.3125 25.2383 97.0781 24.5908 97.0781 23.7061V20.6211C97.0781 20.2285 96.9492 20.0322 96.6914 20.0322C96.5918 20.0322 96.5127 20.0557 96.4541 20.1025L96.6123 21.4121V23.7412C96.6123 24.3975 96.7002 24.9043 96.876 25.2617C96.3018 25.8535 95.4961 26.1494 94.459 26.1494C93.8438 26.1494 93.3252 25.9941 92.9033 25.6836C92.417 25.3262 92.1738 24.8457 92.1738 24.2422V20.041C91.8281 19.5547 91.6553 18.957 91.6553 18.248C91.6553 17.5332 91.8281 16.915 92.1738 16.3936H94.292C94.708 16.3936 95.0625 16.5488 95.3555 16.8594C95.0977 17.0996 94.9688 17.2988 94.9688 17.457C94.9688 17.6387 95.0713 17.7295 95.2764 17.7295C95.5342 17.2842 95.8887 16.9297 96.3398 16.666C96.8672 16.3672 97.4854 16.2178 98.1943 16.2178C98.7334 16.2178 99.2051 16.332 99.6094 16.5605C100.02 16.7891 100.324 17.0527 100.523 17.3516C100.799 16.9766 101.156 16.6953 101.596 16.5078C102.041 16.3145 102.504 16.2178 102.984 16.2178C104.045 16.2178 104.868 16.5459 105.454 17.2021C106.028 17.8584 106.315 18.7578 106.315 19.9004L106.28 21.6494Z"/>
</mask>
<g filter="url(#filter1_i)">
<path d="M26.4141 16.2529V25.332C26.1445 25.5664 25.7842 25.7627 25.333 25.9209C24.8818 26.0791 24.334 26.1582 23.6895 26.1582C23.0449 26.1582 22.4971 26.0146 22.0459 25.7275C21.5361 25.417 21.2812 24.9775 21.2812 24.4092V15.3301C21.5508 15.0957 21.9111 14.8994 22.3623 14.7412C22.8135 14.583 23.3584 14.5039 23.9971 14.5039C24.6357 14.5039 25.1895 14.6445 25.6582 14.9258C26.1621 15.248 26.4141 15.6904 26.4141 16.2529Z" fill="#2967AF"/>
<path d="M31.9248 26.2725C30.4014 26.2725 29.1855 25.8037 28.2773 24.8662C27.375 23.9229 26.9238 22.6602 26.9238 21.0781C26.9238 19.4961 27.4365 18.2451 28.4619 17.3252C29.376 16.5049 30.5186 16.0947 31.8896 16.0947C33.1084 16.0947 34.1191 16.3965 34.9219 17C35.7246 17.5977 36.126 18.4121 36.126 19.4434C36.126 20.1582 35.9033 20.7412 35.458 21.1924C35.0186 21.6377 34.4385 21.8604 33.7178 21.8604C33.1318 21.8604 32.6426 21.7051 32.25 21.3945C31.8633 21.0781 31.6348 20.668 31.5645 20.1641C31.3066 20.1641 31.1777 20.2578 31.1777 20.4453C31.1777 20.873 31.3887 21.2656 31.8105 21.623C32.2969 22.0449 32.9004 22.2559 33.6211 22.2559C34.3477 22.2559 34.9482 22.1006 35.4229 21.79C35.7158 22.2412 35.8623 22.7891 35.8623 23.4336C35.8623 24.1836 35.54 24.8252 34.8955 25.3584C34.1572 25.9678 33.167 26.2725 31.9248 26.2725Z" fill="#2967AF"/>
<path d="M41.6455 26.2725C40.0225 26.2725 38.7422 25.8213 37.8047 24.9189C36.8438 24.0107 36.3633 22.7686 36.3633 21.1924C36.3633 19.6104 36.8584 18.3564 37.8486 17.4307C38.7627 16.5693 39.9199 16.1387 41.3203 16.1387C42.7207 16.1387 43.8428 16.5254 44.6865 17.2988C45.5361 18.0664 45.9609 19.0127 45.9609 20.1377C45.9609 21.1396 45.6123 21.8955 44.915 22.4053C44.2705 22.8857 43.3916 23.126 42.2783 23.126C41.4463 23.126 40.7432 22.9531 40.1689 22.6074C40.1221 22.6426 40.0986 22.707 40.0986 22.8008C40.0986 22.9766 40.3301 23.1377 40.793 23.2842C41.2559 23.4424 41.7803 23.5215 42.3662 23.5215C42.958 23.5215 43.4941 23.4482 43.9746 23.3018C44.4609 23.1494 44.8506 22.9707 45.1436 22.7656C45.2842 22.8887 45.3955 23.1172 45.4775 23.4512C45.5654 23.7793 45.6094 24.0811 45.6094 24.3564C45.6094 24.626 45.583 24.8662 45.5303 25.0771C45.0732 25.4639 44.6045 25.7393 44.124 25.9033C43.4443 26.1494 42.6182 26.2725 41.6455 26.2725ZM41.5312 20.3223C41.8242 20.3223 41.9707 20.2109 41.9707 19.9883C41.9707 19.7773 41.8154 19.6719 41.5049 19.6719C41.1943 19.6719 41.0156 19.8389 40.9688 20.1729C41.1328 20.2725 41.3203 20.3223 41.5312 20.3223Z" fill="#2967AF"/>
<path d="M52.3857 20.6387C52.3857 21.0547 52.3242 21.4297 52.2012 21.7637C52.084 22.0918 51.8994 22.4316 51.6475 22.7832H46.9541C46.4678 22.1152 46.2246 21.4004 46.2246 20.6387C46.2246 20.2168 46.2861 19.8359 46.4092 19.4961C46.5322 19.1504 46.7139 18.7988 46.9541 18.4414H51.6475C51.9053 18.8164 52.0928 19.1709 52.21 19.5049C52.3271 19.8389 52.3857 20.2168 52.3857 20.6387Z" fill="#2967AF"/>
<path d="M58.0811 19.9355C58.0811 19.3496 58.0547 18.9482 58.002 18.7314C57.9492 18.5088 57.8525 18.3975 57.7119 18.3975C57.624 18.3975 57.5449 18.4268 57.4746 18.4854C57.4863 18.5908 57.5039 18.7314 57.5273 18.9072C57.5508 19.083 57.5625 19.458 57.5625 20.0322V20.6035C57.5625 21.002 57.5537 21.292 57.5361 21.4736C57.5186 21.6553 57.5039 21.8105 57.4922 21.9395C57.4863 22.0098 57.4805 22.0801 57.4746 22.1504C57.5449 22.209 57.624 22.2383 57.7119 22.2383C57.8525 22.2383 57.9492 22.1299 58.002 21.9131C58.0547 21.6904 58.0811 21.2861 58.0811 20.7002V19.9355ZM54.8027 26.0088C54.1523 26.0088 53.6484 25.8359 53.291 25.4902C52.9395 25.1445 52.7637 24.623 52.7637 23.9258V16.0156C52.7637 15.5703 53.209 15.1953 54.0996 14.8906C54.9961 14.5801 55.9951 14.4248 57.0967 14.4248C59.0361 14.4248 60.5508 14.8936 61.6406 15.8311C62.8125 16.8389 63.3984 18.3418 63.3984 20.3398C63.3984 22.1387 62.8301 23.5332 61.6934 24.5234C60.5625 25.5137 59.0068 26.0088 57.0264 26.0088H54.8027Z" fill="#2967AF"/>
<path d="M66.5361 26.1143C65.8389 26.1143 65.2822 25.9883 64.8662 25.7363C64.4033 25.4727 64.1719 25.083 64.1719 24.5674V20.041C63.8262 19.5547 63.6533 18.957 63.6533 18.248C63.6533 17.5332 63.8262 16.915 64.1719 16.3936H65.5166C66.208 16.3936 66.7031 16.6162 67.002 17.0615C66.8555 17.2256 66.7266 17.4336 66.6152 17.6855C66.5039 17.9375 66.4482 18.1191 66.4482 18.2305C66.4482 18.3359 66.4746 18.415 66.5273 18.4678C66.5859 18.5205 66.668 18.5469 66.7734 18.5469C66.9785 17.7324 67.3682 17.1348 67.9424 16.7539C68.417 16.4316 69.0029 16.2705 69.7002 16.2705C70.5674 16.2705 71.2471 16.4551 71.7393 16.8242C71.915 17.293 72.0029 17.8672 72.0029 18.5469C72.0029 19.2207 71.8682 19.833 71.5986 20.3838C71.3994 20.4893 71.124 20.5801 70.7725 20.6562C70.4209 20.7266 70.0664 20.7617 69.709 20.7617C69.3516 20.7617 69.0293 20.7383 68.7422 20.6914C68.4609 20.6387 68.2559 20.5918 68.127 20.5508C68.0801 20.5977 68.0566 20.665 68.0566 20.7529C68.0566 20.8408 68.1123 20.9082 68.2236 20.9551C68.3408 20.9961 68.5342 21.043 68.8037 21.0957V25.5078C68.165 25.9121 67.4092 26.1143 66.5361 26.1143Z" fill="#2967AF"/>
<path d="M77.4346 26.2725C75.8115 26.2725 74.5312 25.8213 73.5938 24.9189C72.6328 24.0107 72.1523 22.7686 72.1523 21.1924C72.1523 19.6104 72.6475 18.3564 73.6377 17.4307C74.5518 16.5693 75.709 16.1387 77.1094 16.1387C78.5098 16.1387 79.6318 16.5254 80.4756 17.2988C81.3252 18.0664 81.75 19.0127 81.75 20.1377C81.75 21.1396 81.4014 21.8955 80.7041 22.4053C80.0596 22.8857 79.1807 23.126 78.0674 23.126C77.2354 23.126 76.5322 22.9531 75.958 22.6074C75.9111 22.6426 75.8877 22.707 75.8877 22.8008C75.8877 22.9766 76.1191 23.1377 76.582 23.2842C77.0449 23.4424 77.5693 23.5215 78.1553 23.5215C78.7471 23.5215 79.2832 23.4482 79.7637 23.3018C80.25 23.1494 80.6396 22.9707 80.9326 22.7656C81.0732 22.8887 81.1846 23.1172 81.2666 23.4512C81.3545 23.7793 81.3984 24.0811 81.3984 24.3564C81.3984 24.626 81.3721 24.8662 81.3193 25.0771C80.8623 25.4639 80.3936 25.7393 79.9131 25.9033C79.2334 26.1494 78.4072 26.2725 77.4346 26.2725ZM77.3203 20.3223C77.6133 20.3223 77.7598 20.2109 77.7598 19.9883C77.7598 19.7773 77.6045 19.6719 77.2939 19.6719C76.9834 19.6719 76.8047 19.8389 76.7578 20.1729C76.9219 20.2725 77.1094 20.3223 77.3203 20.3223Z" fill="#2967AF"/>
<path d="M91.04 21.6494C91.04 22.0713 91.0869 22.4111 91.1807 22.6689C91.2744 22.9268 91.4385 23.1289 91.6729 23.2754C91.6787 23.3047 91.6816 23.3604 91.6816 23.4424V23.6006C91.6816 24.4326 91.4297 25.0801 90.9258 25.543C90.4805 25.9531 89.9297 26.1582 89.2734 26.1582C88.8281 26.1582 88.4209 26.0527 88.0518 25.8418C87.6826 25.6309 87.4189 25.3262 87.2607 24.9277C87.0615 24.9277 86.9619 25.0244 86.9619 25.2178C86.9619 25.3818 87.0645 25.5664 87.2695 25.7715C86.8887 26.0293 86.3145 26.1582 85.5469 26.1582C84.4629 26.1582 83.5957 25.8652 82.9453 25.2793C82.3008 24.6875 81.9785 23.8643 81.9785 22.8096C81.9785 21.749 82.3213 20.9287 83.0068 20.3486C83.6338 19.8271 84.4453 19.5664 85.4414 19.5664C85.7812 19.5664 86.1094 19.5898 86.4258 19.6367C86.6367 19.6777 86.751 19.7012 86.7686 19.707C86.7861 19.6484 86.7949 19.5986 86.7949 19.5576C86.7949 19.4053 86.666 19.3027 86.4082 19.25C86.1504 19.1973 85.8135 19.1709 85.3975 19.1709C84.5127 19.1709 83.7568 19.3496 83.1299 19.707C82.8428 19.2207 82.6992 18.6055 82.6992 17.8613C82.6992 17.4395 82.752 17.126 82.8574 16.9209C83.2793 16.7275 83.8154 16.5576 84.4658 16.4111C85.1162 16.2588 85.8018 16.1826 86.5225 16.1826C88.0107 16.1826 89.1357 16.5078 89.8975 17.1582C90.6592 17.8086 91.04 18.7314 91.04 19.9268V21.6494ZM86.4785 22.0801C86.2324 22.0801 86.1094 22.1914 86.1094 22.4141C86.1094 22.625 86.2529 22.7305 86.54 22.7305C86.7393 22.7305 86.8857 22.6836 86.9795 22.5898C87.0732 22.4902 87.1201 22.3203 87.1201 22.0801C87.1201 22.0801 86.9062 22.0801 86.4785 22.0801Z" fill="#2967AF"/>
<path d="M106.28 21.6494C106.28 22.0771 106.327 22.4258 106.421 22.6953C106.515 22.9648 106.679 23.1729 106.913 23.3193C106.919 23.3486 106.922 23.3984 106.922 23.4688V23.6006C106.922 24.4033 106.688 25.0303 106.219 25.4814C105.75 25.9326 105.144 26.1582 104.399 26.1582C103.661 26.1582 103.066 25.9561 102.615 25.5518C102.082 25.083 101.815 24.3652 101.815 23.3984V20.6211C101.815 20.2285 101.687 20.0322 101.429 20.0322C101.329 20.0322 101.25 20.0557 101.191 20.1025L101.35 21.4121V23.3984C101.35 24.1953 101.481 24.7988 101.745 25.209C101.464 25.5078 101.112 25.7422 100.69 25.9121C100.274 26.0762 99.8496 26.1582 99.416 26.1582C98.7129 26.1582 98.168 25.9883 97.7812 25.6484C97.3125 25.2383 97.0781 24.5908 97.0781 23.7061V20.6211C97.0781 20.2285 96.9492 20.0322 96.6914 20.0322C96.5918 20.0322 96.5127 20.0557 96.4541 20.1025L96.6123 21.4121V23.7412C96.6123 24.3975 96.7002 24.9043 96.876 25.2617C96.3018 25.8535 95.4961 26.1494 94.459 26.1494C93.8438 26.1494 93.3252 25.9941 92.9033 25.6836C92.417 25.3262 92.1738 24.8457 92.1738 24.2422V20.041C91.8281 19.5547 91.6553 18.957 91.6553 18.248C91.6553 17.5332 91.8281 16.915 92.1738 16.3936H94.292C94.708 16.3936 95.0625 16.5488 95.3555 16.8594C95.0977 17.0996 94.9688 17.2988 94.9688 17.457C94.9688 17.6387 95.0713 17.7295 95.2764 17.7295C95.5342 17.2842 95.8887 16.9297 96.3398 16.666C96.8672 16.3672 97.4854 16.2178 98.1943 16.2178C98.7334 16.2178 99.2051 16.332 99.6094 16.5605C100.02 16.7891 100.324 17.0527 100.523 17.3516C100.799 16.9766 101.156 16.6953 101.596 16.5078C102.041 16.3145 102.504 16.2178 102.984 16.2178C104.045 16.2178 104.868 16.5459 105.454 17.2021C106.028 17.8584 106.315 18.7578 106.315 19.9004L106.28 21.6494Z" fill="#2967AF"/>
</g>
<path d="M26.4141 16.2529V25.332C26.1445 25.5664 25.7842 25.7627 25.333 25.9209C24.8818 26.0791 24.334 26.1582 23.6895 26.1582C23.0449 26.1582 22.4971 26.0146 22.0459 25.7275C21.5361 25.417 21.2812 24.9775 21.2812 24.4092V15.3301C21.5508 15.0957 21.9111 14.8994 22.3623 14.7412C22.8135 14.583 23.3584 14.5039 23.9971 14.5039C24.6357 14.5039 25.1895 14.6445 25.6582 14.9258C26.1621 15.248 26.4141 15.6904 26.4141 16.2529Z" stroke="white" mask="url(#path-3-outside-1)"/>
<path d="M31.9248 26.2725C30.4014 26.2725 29.1855 25.8037 28.2773 24.8662C27.375 23.9229 26.9238 22.6602 26.9238 21.0781C26.9238 19.4961 27.4365 18.2451 28.4619 17.3252C29.376 16.5049 30.5186 16.0947 31.8896 16.0947C33.1084 16.0947 34.1191 16.3965 34.9219 17C35.7246 17.5977 36.126 18.4121 36.126 19.4434C36.126 20.1582 35.9033 20.7412 35.458 21.1924C35.0186 21.6377 34.4385 21.8604 33.7178 21.8604C33.1318 21.8604 32.6426 21.7051 32.25 21.3945C31.8633 21.0781 31.6348 20.668 31.5645 20.1641C31.3066 20.1641 31.1777 20.2578 31.1777 20.4453C31.1777 20.873 31.3887 21.2656 31.8105 21.623C32.2969 22.0449 32.9004 22.2559 33.6211 22.2559C34.3477 22.2559 34.9482 22.1006 35.4229 21.79C35.7158 22.2412 35.8623 22.7891 35.8623 23.4336C35.8623 24.1836 35.54 24.8252 34.8955 25.3584C34.1572 25.9678 33.167 26.2725 31.9248 26.2725Z" stroke="white" mask="url(#path-3-outside-1)"/>
<path d="M41.6455 26.2725C40.0225 26.2725 38.7422 25.8213 37.8047 24.9189C36.8438 24.0107 36.3633 22.7686 36.3633 21.1924C36.3633 19.6104 36.8584 18.3564 37.8486 17.4307C38.7627 16.5693 39.9199 16.1387 41.3203 16.1387C42.7207 16.1387 43.8428 16.5254 44.6865 17.2988C45.5361 18.0664 45.9609 19.0127 45.9609 20.1377C45.9609 21.1396 45.6123 21.8955 44.915 22.4053C44.2705 22.8857 43.3916 23.126 42.2783 23.126C41.4463 23.126 40.7432 22.9531 40.1689 22.6074C40.1221 22.6426 40.0986 22.707 40.0986 22.8008C40.0986 22.9766 40.3301 23.1377 40.793 23.2842C41.2559 23.4424 41.7803 23.5215 42.3662 23.5215C42.958 23.5215 43.4941 23.4482 43.9746 23.3018C44.4609 23.1494 44.8506 22.9707 45.1436 22.7656C45.2842 22.8887 45.3955 23.1172 45.4775 23.4512C45.5654 23.7793 45.6094 24.0811 45.6094 24.3564C45.6094 24.626 45.583 24.8662 45.5303 25.0771C45.0732 25.4639 44.6045 25.7393 44.124 25.9033C43.4443 26.1494 42.6182 26.2725 41.6455 26.2725ZM41.5312 20.3223C41.8242 20.3223 41.9707 20.2109 41.9707 19.9883C41.9707 19.7773 41.8154 19.6719 41.5049 19.6719C41.1943 19.6719 41.0156 19.8389 40.9688 20.1729C41.1328 20.2725 41.3203 20.3223 41.5312 20.3223Z" stroke="white" mask="url(#path-3-outside-1)"/>
<path d="M52.3857 20.6387C52.3857 21.0547 52.3242 21.4297 52.2012 21.7637C52.084 22.0918 51.8994 22.4316 51.6475 22.7832H46.9541C46.4678 22.1152 46.2246 21.4004 46.2246 20.6387C46.2246 20.2168 46.2861 19.8359 46.4092 19.4961C46.5322 19.1504 46.7139 18.7988 46.9541 18.4414H51.6475C51.9053 18.8164 52.0928 19.1709 52.21 19.5049C52.3271 19.8389 52.3857 20.2168 52.3857 20.6387Z" stroke="white" mask="url(#path-3-outside-1)"/>
<path d="M58.0811 19.9355C58.0811 19.3496 58.0547 18.9482 58.002 18.7314C57.9492 18.5088 57.8525 18.3975 57.7119 18.3975C57.624 18.3975 57.5449 18.4268 57.4746 18.4854C57.4863 18.5908 57.5039 18.7314 57.5273 18.9072C57.5508 19.083 57.5625 19.458 57.5625 20.0322V20.6035C57.5625 21.002 57.5537 21.292 57.5361 21.4736C57.5186 21.6553 57.5039 21.8105 57.4922 21.9395C57.4863 22.0098 57.4805 22.0801 57.4746 22.1504C57.5449 22.209 57.624 22.2383 57.7119 22.2383C57.8525 22.2383 57.9492 22.1299 58.002 21.9131C58.0547 21.6904 58.0811 21.2861 58.0811 20.7002V19.9355ZM54.8027 26.0088C54.1523 26.0088 53.6484 25.8359 53.291 25.4902C52.9395 25.1445 52.7637 24.623 52.7637 23.9258V16.0156C52.7637 15.5703 53.209 15.1953 54.0996 14.8906C54.9961 14.5801 55.9951 14.4248 57.0967 14.4248C59.0361 14.4248 60.5508 14.8936 61.6406 15.8311C62.8125 16.8389 63.3984 18.3418 63.3984 20.3398C63.3984 22.1387 62.8301 23.5332 61.6934 24.5234C60.5625 25.5137 59.0068 26.0088 57.0264 26.0088H54.8027Z" stroke="white" mask="url(#path-3-outside-1)"/>
<path d="M66.5361 26.1143C65.8389 26.1143 65.2822 25.9883 64.8662 25.7363C64.4033 25.4727 64.1719 25.083 64.1719 24.5674V20.041C63.8262 19.5547 63.6533 18.957 63.6533 18.248C63.6533 17.5332 63.8262 16.915 64.1719 16.3936H65.5166C66.208 16.3936 66.7031 16.6162 67.002 17.0615C66.8555 17.2256 66.7266 17.4336 66.6152 17.6855C66.5039 17.9375 66.4482 18.1191 66.4482 18.2305C66.4482 18.3359 66.4746 18.415 66.5273 18.4678C66.5859 18.5205 66.668 18.5469 66.7734 18.5469C66.9785 17.7324 67.3682 17.1348 67.9424 16.7539C68.417 16.4316 69.0029 16.2705 69.7002 16.2705C70.5674 16.2705 71.2471 16.4551 71.7393 16.8242C71.915 17.293 72.0029 17.8672 72.0029 18.5469C72.0029 19.2207 71.8682 19.833 71.5986 20.3838C71.3994 20.4893 71.124 20.5801 70.7725 20.6562C70.4209 20.7266 70.0664 20.7617 69.709 20.7617C69.3516 20.7617 69.0293 20.7383 68.7422 20.6914C68.4609 20.6387 68.2559 20.5918 68.127 20.5508C68.0801 20.5977 68.0566 20.665 68.0566 20.7529C68.0566 20.8408 68.1123 20.9082 68.2236 20.9551C68.3408 20.9961 68.5342 21.043 68.8037 21.0957V25.5078C68.165 25.9121 67.4092 26.1143 66.5361 26.1143Z" stroke="white" mask="url(#path-3-outside-1)"/>
<path d="M77.4346 26.2725C75.8115 26.2725 74.5312 25.8213 73.5938 24.9189C72.6328 24.0107 72.1523 22.7686 72.1523 21.1924C72.1523 19.6104 72.6475 18.3564 73.6377 17.4307C74.5518 16.5693 75.709 16.1387 77.1094 16.1387C78.5098 16.1387 79.6318 16.5254 80.4756 17.2988C81.3252 18.0664 81.75 19.0127 81.75 20.1377C81.75 21.1396 81.4014 21.8955 80.7041 22.4053C80.0596 22.8857 79.1807 23.126 78.0674 23.126C77.2354 23.126 76.5322 22.9531 75.958 22.6074C75.9111 22.6426 75.8877 22.707 75.8877 22.8008C75.8877 22.9766 76.1191 23.1377 76.582 23.2842C77.0449 23.4424 77.5693 23.5215 78.1553 23.5215C78.7471 23.5215 79.2832 23.4482 79.7637 23.3018C80.25 23.1494 80.6396 22.9707 80.9326 22.7656C81.0732 22.8887 81.1846 23.1172 81.2666 23.4512C81.3545 23.7793 81.3984 24.0811 81.3984 24.3564C81.3984 24.626 81.3721 24.8662 81.3193 25.0771C80.8623 25.4639 80.3936 25.7393 79.9131 25.9033C79.2334 26.1494 78.4072 26.2725 77.4346 26.2725ZM77.3203 20.3223C77.6133 20.3223 77.7598 20.2109 77.7598 19.9883C77.7598 19.7773 77.6045 19.6719 77.2939 19.6719C76.9834 19.6719 76.8047 19.8389 76.7578 20.1729C76.9219 20.2725 77.1094 20.3223 77.3203 20.3223Z" stroke="white" mask="url(#path-3-outside-1)"/>
<path d="M91.04 21.6494C91.04 22.0713 91.0869 22.4111 91.1807 22.6689C91.2744 22.9268 91.4385 23.1289 91.6729 23.2754C91.6787 23.3047 91.6816 23.3604 91.6816 23.4424V23.6006C91.6816 24.4326 91.4297 25.0801 90.9258 25.543C90.4805 25.9531 89.9297 26.1582 89.2734 26.1582C88.8281 26.1582 88.4209 26.0527 88.0518 25.8418C87.6826 25.6309 87.4189 25.3262 87.2607 24.9277C87.0615 24.9277 86.9619 25.0244 86.9619 25.2178C86.9619 25.3818 87.0645 25.5664 87.2695 25.7715C86.8887 26.0293 86.3145 26.1582 85.5469 26.1582C84.4629 26.1582 83.5957 25.8652 82.9453 25.2793C82.3008 24.6875 81.9785 23.8643 81.9785 22.8096C81.9785 21.749 82.3213 20.9287 83.0068 20.3486C83.6338 19.8271 84.4453 19.5664 85.4414 19.5664C85.7812 19.5664 86.1094 19.5898 86.4258 19.6367C86.6367 19.6777 86.751 19.7012 86.7686 19.707C86.7861 19.6484 86.7949 19.5986 86.7949 19.5576C86.7949 19.4053 86.666 19.3027 86.4082 19.25C86.1504 19.1973 85.8135 19.1709 85.3975 19.1709C84.5127 19.1709 83.7568 19.3496 83.1299 19.707C82.8428 19.2207 82.6992 18.6055 82.6992 17.8613C82.6992 17.4395 82.752 17.126 82.8574 16.9209C83.2793 16.7275 83.8154 16.5576 84.4658 16.4111C85.1162 16.2588 85.8018 16.1826 86.5225 16.1826C88.0107 16.1826 89.1357 16.5078 89.8975 17.1582C90.6592 17.8086 91.04 18.7314 91.04 19.9268V21.6494ZM86.4785 22.0801C86.2324 22.0801 86.1094 22.1914 86.1094 22.4141C86.1094 22.625 86.2529 22.7305 86.54 22.7305C86.7393 22.7305 86.8857 22.6836 86.9795 22.5898C87.0732 22.4902 87.1201 22.3203 87.1201 22.0801C87.1201 22.0801 86.9062 22.0801 86.4785 22.0801Z" stroke="white" mask="url(#path-3-outside-1)"/>
<path d="M106.28 21.6494C106.28 22.0771 106.327 22.4258 106.421 22.6953C106.515 22.9648 106.679 23.1729 106.913 23.3193C106.919 23.3486 106.922 23.3984 106.922 23.4688V23.6006C106.922 24.4033 106.688 25.0303 106.219 25.4814C105.75 25.9326 105.144 26.1582 104.399 26.1582C103.661 26.1582 103.066 25.9561 102.615 25.5518C102.082 25.083 101.815 24.3652 101.815 23.3984V20.6211C101.815 20.2285 101.687 20.0322 101.429 20.0322C101.329 20.0322 101.25 20.0557 101.191 20.1025L101.35 21.4121V23.3984C101.35 24.1953 101.481 24.7988 101.745 25.209C101.464 25.5078 101.112 25.7422 100.69 25.9121C100.274 26.0762 99.8496 26.1582 99.416 26.1582C98.7129 26.1582 98.168 25.9883 97.7812 25.6484C97.3125 25.2383 97.0781 24.5908 97.0781 23.7061V20.6211C97.0781 20.2285 96.9492 20.0322 96.6914 20.0322C96.5918 20.0322 96.5127 20.0557 96.4541 20.1025L96.6123 21.4121V23.7412C96.6123 24.3975 96.7002 24.9043 96.876 25.2617C96.3018 25.8535 95.4961 26.1494 94.459 26.1494C93.8438 26.1494 93.3252 25.9941 92.9033 25.6836C92.417 25.3262 92.1738 24.8457 92.1738 24.2422V20.041C91.8281 19.5547 91.6553 18.957 91.6553 18.248C91.6553 17.5332 91.8281 16.915 92.1738 16.3936H94.292C94.708 16.3936 95.0625 16.5488 95.3555 16.8594C95.0977 17.0996 94.9688 17.2988 94.9688 17.457C94.9688 17.6387 95.0713 17.7295 95.2764 17.7295C95.5342 17.2842 95.8887 16.9297 96.3398 16.666C96.8672 16.3672 97.4854 16.2178 98.1943 16.2178C98.7334 16.2178 99.2051 16.332 99.6094 16.5605C100.02 16.7891 100.324 17.0527 100.523 17.3516C100.799 16.9766 101.156 16.6953 101.596 16.5078C102.041 16.3145 102.504 16.2178 102.984 16.2178C104.045 16.2178 104.868 16.5459 105.454 17.2021C106.028 17.8584 106.315 18.7578 106.315 19.9004L106.28 21.6494Z" stroke="white" mask="url(#path-3-outside-1)"/>
<defs>
<filter id="filter0_d" x="0" y="0" width="125.763" height="46.0001" filterUnits="userSpaceOnUse" color-interpolation-filters="sRGB">
<feFlood flood-opacity="0" result="BackgroundImageFix"/>
<feColorMatrix in="SourceAlpha" type="matrix" values="0 0 0 0 0 0 0 0 0 0 0 0 0 0 0 0 0 0 127 0"/>
<feMorphology radius="1" operator="dilate" in="SourceAlpha" result="effect1_dropShadow"/>
<feOffset dy="3"/>
<feGaussianBlur stdDeviation="1.5"/>
<feColorMatrix type="matrix" values="0 0 0 0 0 0 0 0 0 0 0 0 0 0 0 0 0 0 0.25 0"/>
<feBlend mode="normal" in2="BackgroundImageFix" result="effect1_dropShadow"/>
<feBlend mode="normal" in="SourceGraphic" in2="effect1_dropShadow" result="shape"/>
</filter>
<filter id="filter1_i" x="20.7812" y="13.9248" width="86.6406" height="12.8477" filterUnits="userSpaceOnUse" color-interpolation-filters="sRGB">
<feFlood flood-opacity="0" result="BackgroundImageFix"/>
<feBlend mode="normal" in="SourceGraphic" in2="BackgroundImageFix" result="shape"/>
<feColorMatrix in="SourceAlpha" type="matrix" values="0 0 0 0 0 0 0 0 0 0 0 0 0 0 0 0 0 0 127 0" result="hardAlpha"/>
<feOffset dy="-2"/>
<feComposite in2="hardAlpha" operator="arithmetic" k2="-1" k3="1"/>
<feColorMatrix type="matrix" values="0 0 0 0 0.995833 0 0 0 0 0.991684 0 0 0 0 0.991684 0 0 0 0.35 0"/>
<feBlend mode="normal" in2="shape" result="effect1_innerShadow"/>
</filter>
</defs>
</svg>
