<?xml version="1.0" encoding="UTF-8"?>
<svg xmlns="http://www.w3.org/2000/svg" xmlns:xlink="http://www.w3.org/1999/xlink" width="40pt" height="40pt" viewBox="0 0 40 40" version="1.1">
<g id="surface1">
<path style=" stroke:none;fill-rule:nonzero;fill:rgb(0%,0%,0%);fill-opacity:1;" d="M 38.859375 28.265625 L 30.109375 24.515625 C 29.339844 24.1875 28.449219 24.40625 27.921875 25.054688 L 24.046875 29.789062 C 17.964844 26.921875 13.070312 22.027344 10.203125 15.945312 L 14.9375 12.070312 C 15.585938 11.542969 15.804688 10.652344 15.476562 9.882812 L 11.726562 1.132812 C 11.363281 0.300781 10.460938 -0.152344 9.578125 0.046875 L 1.453125 1.921875 C 0.601562 2.117188 0 2.875 0 3.75 C 0 23.789062 16.242188 40 36.25 40 C 37.125 40 37.882812 39.398438 38.078125 38.546875 L 39.953125 30.421875 C 40.152344 29.535156 39.695312 28.628906 38.859375 28.265625 Z M 38.859375 28.265625 "/>
</g>
</svg>
